HIERARCHY
ROOT Hips
{
	OFFSET 0.000000 0.000000 0.000000
	CHANNELS 6 Xposition Yposition Zposition Zrotation Yrotation Xrotation 
	JOINT LHipJoint
	{
		OFFSET 0.000000 0.000000 0.000000
		CHANNELS 3 Zrotation Yrotation Xrotation
		JOINT LeftUpLeg
		{
			OFFSET 1.363060 -1.794630 0.839290
			CHANNELS 3 Zrotation Yrotation Xrotation
			JOINT LeftLeg
			{
				OFFSET 2.448110 -6.726130 0.000000
				CHANNELS 3 Zrotation Yrotation Xrotation
				JOINT LeftFoot
				{
					OFFSET 2.562200 -7.039590 0.000000
					CHANNELS 3 Zrotation Yrotation Xrotation
					JOINT LeftToeBase
					{
						OFFSET 0.157640 -0.433110 2.322550
						CHANNELS 3 Zrotation Yrotation Xrotation
						End Site
						{
							OFFSET 0.000000 0.000000 0.000000
						}
					}
				}
			}
		}
	}
	JOINT RHipJoint
	{
		OFFSET 0.000000 0.000000 0.000000
		CHANNELS 3 Zrotation Yrotation Xrotation
		JOINT RightUpLeg
		{
			OFFSET -1.305520 -1.794630 0.839290
			CHANNELS 3 Zrotation Yrotation Xrotation
			JOINT RightLeg
			{
				OFFSET -2.542530 -6.985550 0.000000
				CHANNELS 3 Zrotation Yrotation Xrotation
				JOINT RightFoot
				{
					OFFSET -2.568260 -7.056230 0.000000
					CHANNELS 3 Zrotation Yrotation Xrotation
					JOINT RightToeBase
					{
						OFFSET -0.164730 -0.452590 2.363150
						CHANNELS 3 Zrotation Yrotation Xrotation
						End Site
						{
							OFFSET 0.000000 0.000000 0.000000
						}
					}
				}
			}
		}
	}
	JOINT LowerBack
	{
		OFFSET 0.000000 0.000000 0.000000
		CHANNELS 3 Zrotation Yrotation Xrotation
		JOINT Spine
		{
			OFFSET 0.028270 2.035590 -0.193380
			CHANNELS 3 Zrotation Yrotation Xrotation
			JOINT Spine1
			{
				OFFSET 0.056720 2.048850 -0.042750
				CHANNELS 3 Zrotation Yrotation Xrotation
				JOINT Neck
				{
					OFFSET 0.000000 0.000000 0.000000
					CHANNELS 3 Zrotation Yrotation Xrotation
					JOINT Neck1
					{
						OFFSET -0.054170 1.746240 0.172020
						CHANNELS 3 Zrotation Yrotation Xrotation
						JOINT Head
						{
							OFFSET 0.104070 1.761360 -0.123970
							CHANNELS 3 Zrotation Yrotation Xrotation
							End Site
							{
								OFFSET 0.000000 0.000000 0.000000
							}
						}
					}
				}
				JOINT LeftShoulder
				{
					OFFSET 0.000000 0.000000 0.000000
					CHANNELS 3 Zrotation Yrotation Xrotation
					JOINT LeftArm
					{
						OFFSET 3.362410 1.200890 -0.311210
						CHANNELS 3 Zrotation Yrotation Xrotation
						JOINT LeftForeArm
						{
							OFFSET 4.983000 -0.000000 -0.000000
							CHANNELS 3 Zrotation Yrotation Xrotation
							JOINT LeftHand
							{
								OFFSET 3.483560 -0.000000 -0.000000
								CHANNELS 3 Zrotation Yrotation Xrotation
								JOINT LeftFingerBase
								{
									OFFSET 0.000000 0.000000 0.000000
									CHANNELS 3 Zrotation Yrotation Xrotation
									JOINT LeftHandIndex1
									{
										OFFSET 0.715260 -0.000000 -0.000000
										CHANNELS 3 Zrotation Yrotation Xrotation
										End Site
										{
											OFFSET 0.000000 0.000000 0.000000
										}
									}
								}
								JOINT LThumb
								{
									OFFSET 0.000000 0.000000 0.000000
									CHANNELS 3 Zrotation Yrotation Xrotation
									End Site
									{
										OFFSET 0.000000 0.000000 0.000000
									}
								}
							}
						}
					}
				}
				JOINT RightShoulder
				{
					OFFSET 0.000000 0.000000 0.000000
					CHANNELS 3 Zrotation Yrotation Xrotation
					JOINT RightArm
					{
						OFFSET -3.136600 1.374050 -0.404650
						CHANNELS 3 Zrotation Yrotation Xrotation
						JOINT RightForeArm
						{
							OFFSET -5.241900 -0.000000 -0.000000
							CHANNELS 3 Zrotation Yrotation Xrotation
							JOINT RightHand
							{
								OFFSET -3.444170 -0.000000 -0.000000
								CHANNELS 3 Zrotation Yrotation Xrotation
								JOINT RightFingerBase
								{
									OFFSET 0.000000 0.000000 0.000000
									CHANNELS 3 Zrotation Yrotation Xrotation
									JOINT RightHandIndex1
									{
										OFFSET -0.622530 -0.000000 -0.000000
										CHANNELS 3 Zrotation Yrotation Xrotation
										End Site
										{
											OFFSET 0.000000 0.000000 0.000000
										}
									}
								}
								JOINT RThumb
								{
									OFFSET 0.000000 0.000000 0.000000
									CHANNELS 3 Zrotation Yrotation Xrotation
									End Site
									{
										OFFSET 0.000000 0.000000 0.000000
									}
								}
							}
						}
					}
				}
			}
		}
	}
}
MOTION
Frames: 12
Frame Time: 0.008333
10.740094 18.771508 28.583216 3.563777 6.632722 8.201903 -2.332420 2.284580 4.110287 -20.019536 -1.033187 3.657014 -4.226660 -0.619706 3.183063 0.962118 0.380940 8.780787 0.017013 0.831731 2.285974 0.556785 1.228698 -3.442876 3.539206 21.584925 -29.372550 2.237929 -8.527010 18.017457 4.126207 -14.842222 -8.771488 -0.798859 5.701045 -15.920449 -4.006655 -4.280280 -5.768807 1.240834 -5.333658 -5.379122 4.611080 -3.436040 7.651309 -8.464795 -1.474687 -18.515363 4.168548 -0.301632 11.807429 4.571177 -0.885043 12.938022 -0.716684 -8.075769 -0.321260 -73.461633 -23.126992 45.030795 16.909580 -25.047039 -5.343207 0.110880 1.466192 -8.456816 18.173466 -23.607361 -7.803484 -7.125000 0.000000 0.000000 -7.127015 3.887488 6.680138 0.109369 7.080996 0.221844 76.527122 -16.524034 34.310238 -13.442664 21.233200 -4.011779 2.638062 2.180958 -16.684113 -27.489163 -19.295921 11.553946 7.125000 0.000000 0.000000 -2.273119 -53.116233 0.451003
10.737219 18.761423 28.670874 3.633142 6.716157 8.234500 -2.308114 2.301539 4.130982 -20.039908 -0.911067 3.845698 -4.215373 -0.628903 3.208991 1.020005 0.177768 8.707034 0.023038 0.966794 2.657522 0.554018 1.252859 -3.456825 2.646179 23.399106 -29.195367 2.248458 -8.465341 17.734536 4.495784 -15.935837 -10.219299 -0.856976 5.898534 -16.491746 -4.114732 -4.350665 -5.815751 1.251590 -5.410362 -5.380333 4.708766 -3.488271 7.687561 -8.591634 -1.514563 -18.534766 4.218341 -0.309193 11.754511 4.640131 -0.891528 12.902667 -0.717285 -8.060775 -0.321774 -73.441600 -23.330328 44.924834 17.080527 -25.218005 -5.421615 0.116703 1.453924 -8.600599 18.111257 -23.553358 -7.751852 -7.125000 0.000000 0.000000 -7.164044 3.967865 6.704615 0.107291 7.065855 0.224739 76.491638 -16.689895 34.050843 -13.288245 21.065163 -3.940458 2.653523 2.110975 -16.466576 -27.596744 -18.745983 11.276038 7.125000 0.000000 0.000000 -2.472156 -52.465898 0.450208
10.734174 18.751203 28.758602 3.698335 6.799039 8.270682 -2.282382 2.318486 4.150511 -20.055893 -0.788356 4.033777 -4.203975 -0.638332 3.234859 1.079146 -0.028702 8.643111 0.029311 1.102197 3.030046 0.546815 1.277733 -3.474616 1.843536 24.997644 -29.062386 2.260621 -8.407702 17.469881 4.801753 -16.849546 -11.518227 -0.914904 6.093723 -17.056871 -4.222438 -4.420903 -5.882427 1.262573 -5.485085 -5.376832 4.805774 -3.541350 7.762154 -8.711310 -1.557608 -18.583470 4.258527 -0.322002 11.706029 4.699346 -0.899942 12.874095 -0.716704 -8.042273 -0.320324 -73.412745 -23.564882 44.822265 17.250078 -25.388405 -5.499483 0.121811 1.441402 -8.756888 18.047999 -23.499225 -7.699866 -7.125000 0.000000 0.000000 -7.201423 4.048762 6.729318 0.109003 7.045066 0.227491 76.455681 -16.821803 33.769681 -13.128378 20.892954 -3.868818 2.667481 2.048649 -16.243946 -27.683311 -18.259428 11.027094 7.125000 0.000000 0.000000 -2.638627 -51.890446 0.447885
10.729748 18.739886 28.846898 3.729767 6.877442 8.335859 -2.245107 2.335333 4.160615 -20.036383 -0.660868 4.216973 -4.191679 -0.649633 3.260244 1.148427 -0.261856 8.658724 0.037596 1.240356 3.410464 0.503726 1.308375 -3.523500 1.772195 24.851430 -29.287039 2.286006 -8.382667 17.353008 4.593067 -16.307650 -11.612551 -0.971306 6.270292 -17.572059 -4.327146 -4.489951 -6.108756 1.275394 -5.543788 -5.335206 4.897297 -3.601291 8.146962 -8.773040 -1.626286 -18.869239 4.220982 -0.377275 11.693439 4.679764 -0.923959 12.900413 -0.706554 -7.995380 -0.302982 -73.312509 -24.052021 44.747144 17.408343 -25.554237 -5.572982 0.121128 1.426826 -9.014359 17.976260 -23.444047 -7.645013 -7.125000 0.000000 0.000000 -7.241632 4.133866 6.755845 0.141375 6.978579 0.229080 76.415900 -16.679008 33.312403 -12.924428 20.686998 -3.794588 2.669278 2.048272 -15.980099 -27.599844 -18.285702 11.012491 7.125000 0.000000 0.000000 -2.541597 -51.920864 0.433198
10.725321 18.728570 28.935195 3.761199 6.955845 8.401037 -2.207832 2.352180 4.170718 -20.016874 -0.533381 4.400168 -4.179382 -0.660934 3.285629 1.217708 -0.495011 8.674337 0.045880 1.378515 3.790883 0.460636 1.339018 -3.572384 1.700853 24.705215 -29.511691 2.311390 -8.357632 17.236135 4.384382 -15.765753 -11.706876 -1.027708 6.446861 -18.087247 -4.431854 -4.558999 -6.335084 1.288215 -5.602490 -5.293580 4.988820 -3.661231 8.531770 -8.834769 -1.694965 -19.155008 4.183438 -0.432548 11.680849 4.660183 -0.947975 12.926731 -0.696404 -7.948488 -0.285639 -73.212273 -24.539160 44.672024 17.566608 -25.720068 -5.646481 0.120444 1.412251 -9.271830 17.904522 -23.388869 -7.590159 -7.125000 0.000000 0.000000 -7.281841 4.218971 6.782372 0.173748 6.912092 0.230670 76.376119 -16.536212 32.855125 -12.720477 20.481042 -3.720357 2.671076 2.047896 -15.716251 -27.516378 -18.311975 10.997889 7.125000 0.000000 0.000000 -2.444568 -51.951283 0.418512
10.722275 18.717154 29.024740 3.745024 7.051250 8.383311 -2.165283 2.389805 4.224181 -19.947541 -0.402206 4.631823 -4.164573 -0.676089 3.316946 1.281361 -0.717410 8.680781 0.044043 1.350803 3.714568 0.431281 1.341995 -3.573536 1.719500 24.560465 -29.697518 2.325445 -8.360215 17.215043 4.184020 -15.248477 -11.792051 -1.078837 6.599781 -18.535828 -4.365792 -4.563481 -6.171210 1.282510 -5.627621 -5.350636 4.956009 -3.658022 8.138535 -8.898410 -1.746403 -18.951022 4.206527 -0.498245 11.731257 4.702750 -0.997599 12.993206 -0.694152 -7.998649 -0.315464 -73.233445 -24.366991 44.799761 17.777011 -25.898435 -5.733033 0.125611 1.397437 -9.489723 17.828578 -23.275156 -7.515212 -7.125000 0.000000 0.000000 -7.323045 4.365381 6.801037 0.124625 6.955809 0.211510 76.539228 -17.057285 32.485730 -12.604474 20.354862 -3.687469 2.678916 2.062020 -15.520215 -27.440518 -18.562014 11.110536 7.125000 0.000000 0.000000 -2.329976 -52.236081 0.413797
10.719765 18.705701 29.114771 3.710335 7.153268 8.333345 -2.120682 2.435510 4.294506 -19.858833 -0.269598 4.882324 -4.148786 -0.692742 3.350570 1.342825 -0.935627 8.683659 0.038269 1.258586 3.460635 0.407267 1.334213 -3.556125 1.773143 24.416286 -29.868246 2.335093 -8.373538 17.231201 3.986896 -14.740776 -11.873669 -1.127917 6.743505 -18.958506 -4.233319 -4.542855 -5.855590 1.269600 -5.639696 -5.446068 4.874845 -3.630256 7.442729 -8.962795 -1.791137 -18.556577 4.253196 -0.567995 11.806163 4.769487 -1.057180 13.075298 -0.694973 -8.086554 -0.363633 -73.301831 -23.938425 45.006388 18.007690 -26.081677 -5.824662 0.133053 1.382531 -9.692225 17.750999 -23.138681 -7.432450 -7.125000 0.000000 0.000000 -7.364635 4.535632 6.816644 0.043809 7.042383 0.184281 76.781239 -17.836529 32.150513 -12.522672 20.259706 -3.670659 2.689106 2.081783 -15.350549 -27.367616 -18.899072 11.272670 7.125000 0.000000 0.000000 -2.208553 -52.619805 0.412961
10.717843 18.694835 29.204906 3.717352 7.253811 8.299928 -2.073402 2.476936 4.341691 -19.814447 -0.139070 5.154302 -4.133346 -0.707806 3.382820 1.410301 -1.178277 8.655771 0.033516 1.180576 3.245846 0.379329 1.331184 -3.558685 1.806250 24.255254 -30.005258 2.338695 -8.392493 17.261919 3.822374 -14.309013 -11.857647 -1.175174 6.879718 -19.359906 -4.184928 -4.543786 -5.724234 1.261516 -5.651912 -5.485841 4.841233 -3.625701 7.153818 -9.045248 -1.856690 -18.403476 4.310179 -0.644886 11.845953 4.843113 -1.106268 13.136058 -0.698265 -8.119748 -0.386670 -73.354254 -23.845366 45.122573 18.202606 -26.247302 -5.904967 0.138140 1.366880 -9.899291 17.657434 -23.028695 -7.351083 -7.125000 0.000000 0.000000 -7.416718 4.681678 6.845271 -0.005473 7.074831 0.171250 76.922808 -18.263480 31.772928 -12.404474 20.136229 -3.637681 2.697805 2.092976 -15.176600 -27.331466 -19.104610 11.376840 7.125000 0.000000 0.000000 -2.143617 -52.858343 0.414568
10.717113 18.685161 29.295256 3.809045 7.351364 8.300111 -2.020679 2.509675 4.341894 -19.860048 -0.012765 5.469889 -4.118610 -0.719641 3.412279 1.489981 -1.470533 8.565418 0.030838 1.131413 3.110533 0.343422 1.337806 -3.601789 1.797662 24.060008 -30.073815 2.330019 -8.422885 17.322201 3.724047 -14.031428 -11.643391 -1.218730 7.000680 -19.718107 -4.307248 -4.588487 -5.966988 1.263229 -5.664415 -5.412607 4.904165 -3.668270 7.691027 -9.164383 -1.964515 -18.740377 4.388104 -0.736273 11.814446 4.930728 -1.134051 13.153505 -0.706575 -8.041863 -0.358682 -73.374268 -24.433489 45.055133 18.324912 -26.377160 -5.962280 0.138447 1.349717 -10.115626 17.531414 -22.972493 -7.272548 -7.125000 0.000000 0.000000 -7.490108 4.778582 6.900333 0.009268 6.997388 0.187045 76.860451 -17.975171 31.309324 -12.212378 19.955249 -3.571879 2.703479 2.086768 -14.993954 -27.369931 -19.043122 11.363326 7.125000 0.000000 0.000000 -2.193366 -52.802108 0.421137
10.716383 18.675487 29.385606 3.900737 7.448917 8.300294 -1.967956 2.542415 4.342098 -19.905648 0.113541 5.785475 -4.103874 -0.731477 3.441738 1.569662 -1.762790 8.475065 0.028161 1.082250 2.975219 0.307515 1.344428 -3.644894 1.789073 23.864763 -30.142373 2.321343 -8.453277 17.382482 3.625721 -13.753843 -11.429135 -1.262287 7.121642 -20.076308 -4.429568 -4.633187 -6.209742 1.264943 -5.676919 -5.339373 4.967097 -3.710840 8.228235 -9.283519 -2.072340 -19.077277 4.466029 -0.827660 11.782938 5.018343 -1.161833 13.170953 -0.714886 -7.963978 -0.330693 -73.394283 -25.021612 44.987693 18.447219 -26.507019 -6.019594 0.138754 1.332554 -10.331961 17.405393 -22.916290 -7.194012 -7.125000 0.000000 0.000000 -7.563497 4.875486 6.955396 0.024009 6.919945 0.202839 76.798093 -17.686862 30.845720 -12.020283 19.774270 -3.506077 2.709154 2.080560 -14.811308 -27.408397 -18.981634 11.349811 7.125000 0.000000 0.000000 -2.243115 -52.745874 0.427706
10.713765 18.664184 29.479130 4.122569 7.528092 8.259822 -1.919410 2.573162 4.365413 -20.064624 0.248716 6.136854 -4.090628 -0.748639 3.464975 1.653969 -2.094274 8.447943 0.029062 1.099398 3.022359 0.276123 1.333464 -3.643240 1.708934 23.676654 -30.131988 2.301689 -8.485769 17.461483 3.566971 -13.567196 -11.105996 -1.196701 6.936377 -19.528884 -4.708235 -4.713941 -6.100736 1.273411 -5.767155 -5.360064 5.120324 -3.767228 8.094728 -9.360751 -2.055579 -18.994057 4.487842 -0.774528 11.747192 5.038900 -1.142419 13.128972 -0.699786 -7.958547 -0.347086 -73.508094 -24.915489 44.827775 18.646921 -26.726641 -6.126827 0.134520 1.327548 -10.506644 17.494333 -22.980621 -7.250616 -7.125000 0.000000 0.000000 -7.512562 4.801420 6.918190 0.022452 6.917217 0.201966 76.745512 -18.001243 30.510944 -11.958658 19.691632 -3.472482 2.706396 2.032417 -14.489160 -27.280811 -18.659555 11.105662 7.125000 0.000000 0.000000 -2.142385 -52.338733 0.388730
10.711027 18.652776 29.572857 4.352708 7.606094 8.216756 -1.871131 2.603782 4.390203 -20.230837 0.384457 6.490518 -4.077477 -0.766142 3.487814 1.738571 -2.428263 8.424856 0.030192 1.120779 3.081146 0.245020 1.321377 -3.638729 1.624228 23.489000 -30.116565 2.281335 -8.518395 17.541678 3.510747 -13.386354 -10.775907 -1.124149 6.731565 -18.923654 -4.996881 -4.796996 -5.969277 1.282310 -5.862352 -5.386751 5.279314 -3.824499 7.918409 -9.435308 -2.030865 -18.884020 4.506074 -0.712171 11.711175 5.055176 -1.119992 13.083198 -0.683191 -7.957740 -0.366312 -73.627891 -24.765053 44.661954 18.851563 -26.951993 -6.237247 0.129997 1.323319 -10.678668 17.596993 -23.052646 -7.315846 -7.125000 0.000000 0.000000 -7.453692 4.716441 6.875093 0.019855 6.919259 0.200030 76.693555 -18.354095 30.184390 -11.905361 19.615270 -3.440943 2.703101 1.981597 -14.158108 -27.142625 -18.320842 10.846792 7.125000 0.000000 0.000000 -2.032051 -51.909193 0.346847
